<?xml version="1.0" encoding="UTF-8"?>
<svg width="1024px" height="1024px" viewBox="0 0 1024 1024" version="1.1" xmlns="http://www.w3.org/2000/svg" xmlns:xlink="http://www.w3.org/1999/xlink">
    <style>
      path {
        fill: black;
      }
      @media (prefers-color-scheme: dark) {
        path {
          fill: #FDFDFD;
        }
      }
    </style>
    <title>Logo</title>
    <defs></defs>
    <g id="Page-1" stroke="none" stroke-width="1" fill-rule="evenodd">
        <g id="Logo">
            <rect id="Background" fill-opacity="0.01" fill="#000000" x="0" y="0" width="1024" height="1024"></rect>
            <path id="RR" d="M32,778.5 L32,246 L272,246 C297.000125,246 320.124894,251.249947 341.375,261.75 C362.625106,272.250053 380.999923,285.999915 396.5,303 C412.000077,320.000085 424.124956,339.249892 432.875,360.75 C441.625044,382.250108 446,403.99989 446,426 C446,442.500082 444.00002,458.374924 440,473.625 C435.99998,488.875076 430.250038,503.249932 422.75,516.75 C415.249963,530.250068 406.125054,542.374946 395.375,553.125 C384.624946,563.875054 372.500068,572.999963 359,580.5 L481.25,778.5 L342.5,778.5 L235.25,606.75 L155,606.75 L155,778.5 L32,778.5 Z M155,499.5 L267.5,499.5 C282.000072,499.5 294.499948,492.625069 305,478.875 C315.500052,465.124931 320.75,447.500108 320.75,426 C320.75,403.99989 314.75006,386.500065 302.75,373.5 C290.74994,360.499935 277.75007,354 263.75,354 L155,354 L155,499.5 Z M543.562503,778.5 L543.562503,246 L783.562503,246 C808.562628,246 831.687397,251.249947 852.937503,261.75 C874.18761,272.250053 892.562426,285.999915 908.062503,303 C923.562581,320.000085 935.68746,339.249892 944.437503,360.75 C953.187547,382.250108 957.562503,403.99989 957.562503,426 C957.562503,442.500082 955.562523,458.374924 951.562503,473.625 C947.562483,488.875076 941.812541,503.249932 934.312503,516.75 C926.812466,530.250068 917.687557,542.374946 906.937503,553.125 C896.18745,563.875054 884.062571,572.999963 870.562503,580.5 L992.812503,778.5 L854.062503,778.5 L746.812503,606.75 L666.562503,606.75 L666.562503,778.5 L543.562503,778.5 Z M666.562503,499.5 L779.062503,499.5 C793.562576,499.5 806.062451,492.625069 816.562503,478.875 C827.062556,465.124931 832.312503,447.500108 832.312503,426 C832.312503,403.99989 826.312563,386.500065 814.312503,373.5 C802.312443,360.499935 789.312573,354 775.312503,354 L666.562503,354 L666.562503,499.5 Z"></path>
        </g>
    </g>
</svg>
